<svg width="31" height="39" viewBox="0 0 31 39" fill="none" xmlns="http://www.w3.org/2000/svg">
<path fill-rule="evenodd" clip-rule="evenodd" d="M4.07812 0.6875H10.125C11.9069 0.6875 13.6159 1.39537 14.8759 2.65538C16.1359 3.91539 16.8438 5.62433 16.8438 7.40625V10.7656C16.8438 12.6218 18.3487 14.125 20.2031 14.125H23.5625C25.3444 14.125 27.0534 14.8329 28.3134 16.0929C29.5734 17.3529 30.2812 19.0618 30.2812 20.8438V34.9531C30.2812 36.8075 28.7762 38.3125 26.9219 38.3125H4.07812C3.18716 38.3125 2.33269 37.9586 1.70269 37.3286C1.07268 36.6986 0.71875 35.8441 0.71875 34.9531V4.04688C0.71875 2.19071 2.22375 0.6875 4.07812 0.6875ZM11.4688 23.5312C11.1124 23.5312 10.7706 23.6728 10.5186 23.9248C10.2666 24.1768 10.125 24.5186 10.125 24.875C10.125 25.2314 10.2666 25.5732 10.5186 25.8252C10.7706 26.0772 11.1124 26.2188 11.4688 26.2188H20.875C21.2314 26.2188 21.5732 26.0772 21.8252 25.8252C22.0772 25.5732 22.2188 25.2314 22.2188 24.875C22.2188 24.5186 22.0772 24.1768 21.8252 23.9248C21.5732 23.6728 21.2314 23.5312 20.875 23.5312H11.4688Z" fill="white"/>
</svg>
