<svg width="275" height="269" viewBox="0 0 275 269" fill="none" xmlns="http://www.w3.org/2000/svg">
<g clip-path="url(#clip0_91_203)">
<path d="M174.582 60.37H100.481C98.7925 60.372 97.1736 61.0438 95.9796 62.2378C94.7856 63.4318 94.1139 65.0507 94.1118 66.7393V231.429L93.2626 231.688L75.0845 237.254C74.223 237.517 73.2925 237.427 72.4972 237.004C71.7019 236.582 71.1069 235.861 70.8427 235L16.7713 58.3785C16.5081 57.517 16.5978 56.5863 17.0206 55.7908C17.4434 54.9954 18.1647 54.4004 19.026 54.1366L47.0384 45.5592L128.247 20.7019L156.259 12.1245C156.686 11.9933 157.134 11.9475 157.578 11.9896C158.022 12.0318 158.453 12.161 158.847 12.3701C159.241 12.5791 159.59 12.8638 159.874 13.2078C160.158 13.5519 160.371 13.9485 160.501 14.375L174.323 59.5207L174.582 60.37Z" fill="#F2F2F2"/>
<path d="M190.75 59.5209L174.092 5.10999C173.815 4.20341 173.362 3.36031 172.759 2.62889C172.156 1.89747 171.415 1.29206 170.578 0.847254C169.74 0.402445 168.824 0.126953 167.88 0.0365304C166.936 -0.0538921 165.984 0.0425268 165.078 0.320268L125.694 12.3753L44.4898 37.2368L5.10617 49.2961C3.27661 49.8579 1.7447 51.1226 0.846687 52.8127C-0.0513268 54.5028 -0.242078 56.4802 0.316313 58.3108L57.2495 244.265C57.7032 245.743 58.6184 247.036 59.8611 247.956C61.1037 248.875 62.6083 249.372 64.154 249.373C64.8694 249.374 65.5808 249.266 66.2642 249.055L93.2617 240.792L94.1109 240.528V239.641L93.2617 239.9L66.0138 248.244C64.3989 248.736 62.6546 248.568 61.1637 247.776C59.6727 246.984 58.5568 245.633 58.0606 244.019L1.13176 58.0603C0.885942 57.2607 0.800268 56.4204 0.879641 55.5877C0.959013 54.7549 1.20187 53.946 1.59431 53.2072C1.98675 52.4685 2.52108 51.8144 3.16667 51.2824C3.81226 50.7504 4.55645 50.351 5.35661 50.1071L44.7402 38.0479L125.945 13.1905L165.328 1.1313C165.935 0.946082 166.566 0.851642 167.201 0.851051C168.563 0.854108 169.888 1.29315 170.982 2.10386C172.076 2.91458 172.882 4.05437 173.282 5.35628L189.863 59.521L190.126 60.3702H191.01L190.75 59.5209Z" fill="#3F3D56"/>
<path d="M52.0922 54.2754C51.2738 54.2748 50.4771 54.012 49.819 53.5254C49.1609 53.0389 48.6761 52.3542 48.4356 51.572L42.9663 33.7074C42.8194 33.2275 42.7684 32.7234 42.8163 32.2238C42.8641 31.7242 43.01 31.239 43.2454 30.7958C43.4809 30.3525 43.8013 29.9601 44.1885 29.6407C44.5757 29.3214 45.0219 29.0814 45.5018 28.9346L120.209 6.06286C121.178 5.76712 122.225 5.86799 123.12 6.34331C124.015 6.81863 124.685 7.62957 124.982 8.59815L130.452 26.4629C130.747 27.4321 130.646 28.4789 130.171 29.3737C129.696 30.2685 128.885 30.9382 127.916 31.236L53.2087 54.1077C52.8469 54.2187 52.4706 54.2752 52.0922 54.2754Z" fill="#8EB0D6"/>
<path d="M80.7424 19.0887C85.4327 19.0887 89.2348 15.2865 89.2348 10.5963C89.2348 5.90604 85.4327 2.10385 80.7424 2.10385C76.0522 2.10385 72.25 5.90604 72.25 10.5963C72.25 15.2865 76.0522 19.0887 80.7424 19.0887Z" fill="#8EB0D6"/>
<path d="M80.7429 15.9739C83.7129 15.9739 86.1206 13.5663 86.1206 10.5963C86.1206 7.62626 83.7129 5.2186 80.7429 5.2186C77.7729 5.2186 75.3652 7.62626 75.3652 10.5963C75.3652 13.5663 77.7729 15.9739 80.7429 15.9739Z" fill="white"/>
<path d="M255.893 247.203H112.371C111.414 247.202 110.497 246.822 109.82 246.145C109.143 245.468 108.763 244.551 108.762 243.594V71.6225C108.763 70.6656 109.143 69.7481 109.82 69.0715C110.497 68.3949 111.414 68.0143 112.371 68.0132H255.893C256.85 68.0143 257.767 68.3949 258.444 69.0715C259.12 69.7482 259.501 70.6656 259.502 71.6225V243.594C259.501 244.551 259.12 245.468 258.444 246.145C257.767 246.822 256.85 247.202 255.893 247.203Z" fill="#E6E6E6"/>
<path d="M189.863 59.5208H100.48C98.5666 59.5235 96.7321 60.2849 95.379 61.638C94.0258 62.9912 93.2644 64.8257 93.2617 66.7393V239.9L94.111 239.641V66.7393C94.113 65.0507 94.7847 63.4318 95.9788 62.2378C97.1728 61.0438 98.7917 60.372 100.48 60.37H190.126L189.863 59.5208ZM267.781 59.5208H100.48C98.5666 59.5235 96.7321 60.2849 95.379 61.638C94.0258 62.9912 93.2644 64.8257 93.2617 66.7393V261.216C93.2644 263.129 94.0258 264.964 95.379 266.317C96.7321 267.67 98.5666 268.432 100.48 268.434H267.781C269.695 268.432 271.529 267.67 272.882 266.317C274.235 264.964 274.997 263.129 275 261.216V66.7393C274.997 64.8257 274.235 62.9912 272.882 61.638C271.529 60.2849 269.695 59.5235 267.781 59.5208ZM274.15 261.216C274.148 262.904 273.477 264.523 272.283 265.717C271.088 266.911 269.47 267.583 267.781 267.585H100.48C98.7917 267.583 97.1728 266.911 95.9788 265.717C94.7847 264.523 94.113 262.904 94.111 261.216V66.7393C94.113 65.0507 94.7847 63.4318 95.9788 62.2378C97.1728 61.0438 98.7917 60.372 100.48 60.37H267.781C269.47 60.372 271.088 61.0438 272.283 62.2378C273.477 63.4318 274.148 65.0507 274.15 66.7393V261.216Z" fill="#3F3D56"/>
<path d="M223.196 78.2041H145.066C144.053 78.2029 143.081 77.7999 142.365 77.0835C141.648 76.3671 141.245 75.3957 141.244 74.3825V55.6992C141.245 54.686 141.648 53.7146 142.365 52.9981C143.081 52.2817 144.053 51.8787 145.066 51.8776H223.196C224.209 51.8787 225.181 52.2817 225.897 52.9981C226.613 53.7146 227.016 54.686 227.018 55.6992V74.3825C227.016 75.3957 226.613 76.3671 225.897 77.0835C225.181 77.7999 224.209 78.2029 223.196 78.2041Z" fill="#8EB0D6"/>
<path d="M184.131 53.1514C188.821 53.1514 192.624 49.3493 192.624 44.659C192.624 39.9688 188.821 36.1666 184.131 36.1666C179.441 36.1666 175.639 39.9688 175.639 44.659C175.639 49.3493 179.441 53.1514 184.131 53.1514Z" fill="#8EB0D6"/>
<path d="M184.132 49.8317C186.988 49.8317 189.304 47.5158 189.304 44.659C189.304 41.8022 186.988 39.4863 184.132 39.4863C181.275 39.4863 178.959 41.8022 178.959 44.659C178.959 47.5158 181.275 49.8317 184.132 49.8317Z" fill="white"/>
</g>
<defs>
<clipPath id="clip0_91_203">
<rect width="275" height="268.434" fill="white"/>
</clipPath>
</defs>
</svg>
