<svg width="31" height="39" viewBox="0 0 31 39" fill="none" xmlns="http://www.w3.org/2000/svg">
<path fill-rule="evenodd" clip-rule="evenodd" d="M4.07812 0.6875C2.22196 0.6875 0.71875 2.1925 0.71875 4.04688V34.9531C0.71875 36.8075 2.22375 38.3125 4.07812 38.3125H26.9219C28.7762 38.3125 30.2812 36.8075 30.2812 34.9531V20.8438C30.2812 19.0618 29.5734 17.3529 28.3134 16.0929C27.0534 14.8329 25.3444 14.125 23.5625 14.125H20.2031C19.3122 14.125 18.4577 13.7711 17.8277 13.1411C17.1977 12.5111 16.8438 11.6566 16.8438 10.7656V7.40625C16.8438 5.62433 16.1359 3.91539 14.8759 2.65538C13.6159 1.39537 11.9069 0.6875 10.125 0.6875H4.07812ZM7.4375 24.875C7.4375 24.5186 7.57907 24.1768 7.83107 23.9248C8.08308 23.6728 8.42487 23.5312 8.78125 23.5312H22.2188C22.5751 23.5312 22.9169 23.6728 23.1689 23.9248C23.4209 24.1768 23.5625 24.5186 23.5625 24.875C23.5625 25.2314 23.4209 25.5732 23.1689 25.8252C22.9169 26.0772 22.5751 26.2188 22.2188 26.2188H8.78125C8.42487 26.2188 8.08308 26.0772 7.83107 25.8252C7.57907 25.5732 7.4375 25.2314 7.4375 24.875ZM8.78125 28.9062C8.42487 28.9062 8.08308 29.0478 7.83107 29.2998C7.57907 29.5518 7.4375 29.8936 7.4375 30.25C7.4375 30.6064 7.57907 30.9482 7.83107 31.2002C8.08308 31.4522 8.42487 31.5938 8.78125 31.5938H15.5C15.8564 31.5938 16.1982 31.4522 16.4502 31.2002C16.7022 30.9482 16.8438 30.6064 16.8438 30.25C16.8438 29.8936 16.7022 29.5518 16.4502 29.2998C16.1982 29.0478 15.8564 28.9062 15.5 28.9062H8.78125Z" fill="white"/>
</svg>
