<svg width="31" height="39" viewBox="0 0 31 39" fill="none" xmlns="http://www.w3.org/2000/svg">
<path fill-rule="evenodd" clip-rule="evenodd" d="M10.125 0.6875H4.07812C2.22196 0.6875 0.71875 2.1925 0.71875 4.04688V34.9531C0.71875 36.8075 2.22375 38.3125 4.07812 38.3125H26.9219C28.7762 38.3125 30.2812 36.8075 30.2812 34.9531V20.8438C30.2812 19.0618 29.5734 17.3529 28.3134 16.0929C27.0534 14.8329 25.3444 14.125 23.5625 14.125H20.2031C19.3122 14.125 18.4577 13.7711 17.8277 13.1411C17.1977 12.5111 16.8438 11.6566 16.8438 10.7656V7.40625C16.8438 5.62433 16.1359 3.91539 14.8759 2.65538C13.6159 1.39537 11.9069 0.6875 10.125 0.6875ZM21.9679 20.2812C22.0754 20.1379 22.1532 19.9746 22.1967 19.8009C22.2402 19.6272 22.2485 19.4465 22.2212 19.2695C22.1938 19.0925 22.1314 18.9228 22.0375 18.7702C21.9437 18.6177 21.8202 18.4855 21.6745 18.3814C21.5288 18.2772 21.3638 18.2033 21.1891 18.1638C21.0144 18.1244 20.8336 18.1203 20.6573 18.1517C20.481 18.1831 20.3127 18.2495 20.1624 18.3469C20.0121 18.4443 19.8828 18.5707 19.7821 18.7188L13.9843 26.8351L11.0746 23.9254C10.8199 23.6881 10.4829 23.5588 10.1348 23.565C9.78669 23.5711 9.45454 23.7121 9.20834 23.9583C8.96215 24.2045 8.82112 24.5367 8.81498 24.8848C8.80884 25.2329 8.93806 25.5699 9.17542 25.8246L13.2067 29.8558C13.3446 29.9937 13.5109 30.0998 13.694 30.1669C13.8771 30.2341 14.0726 30.2605 14.2669 30.2445C14.4613 30.2285 14.6498 30.1704 14.8194 30.0742C14.989 29.9779 15.1357 29.846 15.2492 29.6874L21.9679 20.2812Z" fill="white"/>
</svg>
